<?xml version="1.0" encoding="utf-8"?>
<!DOCTYPE svg PUBLIC "-//W3C//DTD SVG 1.1//EN" "http://www.w3.org/Graphics/SVG/1.1/DTD/svg11.dtd">
<svg version="1.1" width="792px" height="346px" viewBox="0 0 792 346">
  <g id="true-1">
  	<path class="line" fill="none" stroke="#FFFFFF" stroke-miterlimit="10" stroke-width="2" d="M10.1,11h162.1"/>
  	<path class="line" fill="none" stroke="#FFFFFF" stroke-miterlimit="10" stroke-width="2" d="M91.2,11v324.2"/>
  	<path class="dot" fill="#FFFFFF" d="M10.1,21.2L0,11.1L10.1,1l10.1,10.1L10.1,21.2z"/>
  	<path class="dot" fill="#FFFFFF" d="M172.2,21.2l-10.1-10.1L172.2,1l10.1,10.1L172.2,21.2z"/>
  	<path class="dot" fill="#FFFFFF" d="M91.2,345.1L81.1,335l10.1-10l10.1,10.1L91.2,345.1z"/>
  </g>
  <g id="true-2">
  	<path class="line" fill="none" stroke="#FFFFFF" stroke-miterlimit="10" stroke-width="2" d="M212.7,10.1v324.2"/>
  	<path class="line" fill="none" stroke="#FFFFFF" stroke-miterlimit="10" stroke-width="2" d="M374.8,10.1H212.7"/>
  	<path class="line" fill="none" stroke="#FFFFFF" stroke-miterlimit="10" stroke-width="2" d="M212.7,172.3L374.8,10.2"/>
  	<path class="line" fill="none" stroke="#FFFFFF" stroke-miterlimit="10" stroke-width="2" d="M374.8,334.4L212.7,172.3"/>
  	<path class="dot" fill="#FFFFFF" d="M374.9,344.4l-10.1-10.1l10.1-10.1l10.1,10.1L374.9,344.4z"/>
  	<path class="dot" fill="#FFFFFF" d="M212.1,344.2l-10.1-10l10.1-10.1l10.1,10.1L212.1,344.2z"/>
  	<path class="dot" fill="#FFFFFF" d="M212.1,182.1l-10.1-10l10.1-10.1l10.1,10.1L212.1,182.1z"/>
  	<path class="dot" fill="#FFFFFF" d="M374.9,20.2l-10.1-10.1L374.9,0L385,10.1L374.9,20.2z"/>
  	<path class="dot" fill="#FFFFFF" d="M212.8,20.2l-10.1-10.1L212.8,0l10.1,10.1L212.8,20.2z"/>
  </g>
  <g id="true-3">
  	<path class="line" fill="none" stroke="#FFFFFF" stroke-miterlimit="10" stroke-width="2" d="M577.8,10.1l-81,324.2"/>
  	<path class="line" fill="none" stroke="#FFFFFF" stroke-miterlimit="10" stroke-width="2" d="M496.9,334.4L415.7,10.2"/>
  	<path class="dot" fill="#FFFFFF" d="M496.9,324.5l10.1,10.1l-10.1,10.1l-10.1-10.1L496.9,324.5z"/>
  	<path class="dot" fill="#FFFFFF" d="M578,0l10.1,10.1L578,20.2l-10.1-10.1L578,0z"/>
  	<path class="dot" fill="#FFFFFF" d="M415.8,0l10.1,10.1l-10.1,10.1l-10.1-10.1L415.8,0z"/>
  </g>
  <g id="true-4">
  	<path class="line" fill="none" stroke="#FFFFFF" stroke-miterlimit="10" stroke-width="2" d="M618.5,11v324.2"/>
  	<path class="line" fill="none" stroke="#FFFFFF" stroke-miterlimit="10" stroke-width="2" d="M618.5,335.2h161.9"/>
  	<path class="line" fill="none" stroke="#FFFFFF" stroke-miterlimit="10" stroke-width="2" d="M618.5,173.1h161.9"/>
  	<path class="line" fill="none" stroke="#FFFFFF" stroke-miterlimit="10" stroke-width="2" d="M618.5,11h161.9"/>
  	<path class="dot" fill="#FFFFFF" d="M618.5,20.5l-10.1-10.1l10.1-10.1l10.1,10.1L618.5,20.5z"/>
  	<path class="dot" fill="#FFFFFF" d="M618.6,345.3l-10.1-10.1l10.1-10.1l10.1,10.1L618.6,345.3z"/>
  	<path class="dot" fill="#FFFFFF" d="M618.4,182.6l-10.1-10.1l10.1-10.1l10.1,10.1L618.4,182.6z"/>
  	<path class="dot" fill="#FFFFFF" d="M780.6,182.6l-10.1-10.1l10.1-10.1l10.1,10.1L780.6,182.6z"/>
  	<path class="dot" fill="#FFFFFF" d="M780.6,20.5l-10.1-10.1l10.1-10.1l10.1,10.1L780.6,20.5z"/>
  	<path class="dot" fill="#FFFFFF" d="M780.7,345.3l-10.1-10.1l10.1-10.1l10.1,10.1L780.7,345.3z"/>
  </g>
</svg>
